<svg width="11" height="11" viewBox="0 0 11 11" fill="none" xmlns="http://www.w3.org/2000/svg">
<path fill-rule="evenodd" clip-rule="evenodd" d="M9.34207 3.99122L10.0833 3.24993C10.7277 2.6056 10.7277 1.56093 10.0833 0.916599C9.43902 0.272266 8.39435 0.272266 7.75002 0.916599L6.9945 1.67211C7.54008 2.6474 8.35297 3.45383 9.34207 3.99122ZM5.53942 3.12719L2.18973 6.47689C1.76467 6.90195 1.55214 7.11448 1.4124 7.37557C1.27267 7.63667 1.21372 7.9314 1.09583 8.52085L0.897104 9.5145C0.830582 9.84711 0.797321 10.0134 0.891929 10.108C0.986537 10.2026 1.15284 10.1694 1.48545 10.1028L2.4791 9.90412C3.06855 9.78623 3.36328 9.72728 3.62437 9.58754C3.88547 9.44781 4.098 9.23528 4.52306 8.81022L7.88316 5.45012C6.94574 4.84715 6.14773 4.05441 5.53942 3.12719Z" fill="#FD4114"/>
</svg>
